<svg xmlns="http://www.w3.org/2000/svg" xmlns:xlink="http://www.w3.org/1999/xlink" width="59" height="59" viewBox="0 0 59 59"><defs><clipPath id="a"><circle cx="29.5" cy="29.5" r="29.5" transform="translate(0 0)"/></clipPath></defs><g transform="translate(379.984 921.02)"><g transform="translate(-379.984 -921.011)"><rect width="58.524" height="58.482" fill="#f4f5f5" opacity="0"/></g><g transform="translate(-379.984 -921.02)"><circle cx="29.5" cy="29.5" r="29.5" transform="translate(0 0)" fill="#ffa5a5"/><g clip-path="url(#a)"><path d="M33.469,62.4l9.365,9.29H76.673V39.471L61.364,24.3,33.65,27.8l3.489,3.479V60.367Z" transform="translate(-18.173 -13.192)" fill="#ffd6c0"/></g><g transform="translate(18.967 14.154)"><path d="M53.389,47.908a1.842,1.842,0,0,1,0-2.341l5.881-6.8a11.961,11.961,0,0,0,2.8-7.8H41.5a11.961,11.961,0,0,0,2.8,7.8l5.881,6.8a1.842,1.842,0,0,1,0,2.341L44.3,54.7a11.961,11.961,0,0,0-2.8,7.8H62.066a11.961,11.961,0,0,0-2.8-7.8Z" transform="translate(-41.5 -30.97)" fill="#fff"/></g><g transform="translate(19.917 14.454)"><path d="M43.579,62.861c.186-2.362,1.088-5.529,2.538-7.2L52,48.862a2.758,2.758,0,0,0,0-3.537l-5.881-6.8a11.271,11.271,0,0,1-2.538-6.9H62.245a11.27,11.27,0,0,1-2.538,6.9l-5.881,6.8a2.756,2.756,0,0,0,0,3.537l5.881,6.8c1.45,1.675,2.352,4.842,2.538,7.2H43.579Z" transform="translate(-43.579 -31.625)" fill="#e0e8e9"/></g><path d="M60.15,23.482H33.969A1.169,1.169,0,0,0,32.8,24.651v1.765a1.169,1.169,0,0,0,1.169,1.169H60.15a1.169,1.169,0,0,0,1.169-1.169V24.651A1.169,1.169,0,0,0,60.15,23.482Z" transform="translate(-17.809 -12.75)" fill="#e1dbca"/><rect width="0.914" height="31.078" transform="translate(18.51 14.611)" fill="#e1dbca"/><rect width="0.914" height="31.078" transform="translate(39.076 14.611)" fill="#e1dbca"/><g transform="translate(19.917 22.887)"><path d="M61.742,70.292h0c-1.217-3.268-8.182-3.026-8.182-3.026-.415-.479-.375-9.493-.375-10.154a2.7,2.7,0,0,1,.642-1.768l3.9-4.51a.456.456,0,0,0-.418-.75,28.329,28.329,0,0,1-8.8,0,.456.456,0,0,0-.418.75l3.9,4.51a2.7,2.7,0,0,1,.642,1.768c0,.662.04,9.639-.375,10.118,0,0-6.965-.206-8.182,3.062h0a11.622,11.622,0,0,0-.5,2.587H62.245A11.644,11.644,0,0,0,61.742,70.292Z" transform="translate(-43.579 -50.077)" fill="#faa819"/></g><g transform="translate(17.443 11.768)"><path d="M38.528,27.73h0a.363.363,0,0,1-.362-.362V26.111a.363.363,0,0,1,.362-.362h0a.363.363,0,0,1,.362.362v1.257A.363.363,0,0,1,38.528,27.73Z" transform="translate(-38.166 -25.749)" fill="#8b4e14"/><path d="M41.862,27.73h0a.363.363,0,0,1-.362-.362V26.111a.363.363,0,0,1,.362-.362h0a.363.363,0,0,1,.362.362v1.257A.363.363,0,0,1,41.862,27.73Z" transform="translate(-39.976 -25.749)" fill="#8b4e14"/><path d="M45.195,27.73h0a.363.363,0,0,1-.362-.362V26.111a.363.363,0,0,1,.362-.362h0a.363.363,0,0,1,.362.362v1.257A.363.363,0,0,1,45.195,27.73Z" transform="translate(-41.786 -25.749)" fill="#8b4e14"/><path d="M48.528,27.73h0a.363.363,0,0,1-.362-.362V26.111a.363.363,0,0,1,.362-.362h0a.363.363,0,0,1,.362.362v1.257A.363.363,0,0,1,48.528,27.73Z" transform="translate(-43.596 -25.749)" fill="#8b4e14"/><path d="M51.861,27.73h0a.363.363,0,0,1-.362-.362V26.111a.363.363,0,0,1,.362-.362h0a.363.363,0,0,1,.362.362v1.257A.363.363,0,0,1,51.861,27.73Z" transform="translate(-45.405 -25.749)" fill="#8b4e14"/><path d="M55.195,27.73h0a.363.363,0,0,1-.362-.362V26.111a.363.363,0,0,1,.362-.362h0a.363.363,0,0,1,.362.362v1.257A.363.363,0,0,1,55.195,27.73Z" transform="translate(-47.216 -25.749)" fill="#8b4e14"/><path d="M58.528,27.73h0a.363.363,0,0,1-.362-.362V26.111a.363.363,0,0,1,.362-.362h0a.363.363,0,0,1,.362.362v1.257A.363.363,0,0,1,58.528,27.73Z" transform="translate(-49.025 -25.749)" fill="#8b4e14"/><path d="M61.861,27.73h0a.363.363,0,0,1-.362-.362V26.111a.363.363,0,0,1,.362-.362h0a.363.363,0,0,1,.362.362v1.257A.363.363,0,0,1,61.861,27.73Z" transform="translate(-50.835 -25.749)" fill="#8b4e14"/><path d="M65.195,27.73h0a.363.363,0,0,1-.362-.362V26.111a.363.363,0,0,1,.362-.362h0a.363.363,0,0,1,.362.362v1.257A.363.363,0,0,1,65.195,27.73Z" transform="translate(-52.645 -25.749)" fill="#8b4e14"/><path d="M68.528,27.73h0a.363.363,0,0,1-.362-.362V26.111a.363.363,0,0,1,.362-.362h0a.363.363,0,0,1,.362.362v1.257A.363.363,0,0,1,68.528,27.73Z" transform="translate(-54.455 -25.749)" fill="#8b4e14"/><path d="M71.861,27.73h0a.363.363,0,0,1-.362-.362V26.111a.363.363,0,0,1,.362-.362h0a.363.363,0,0,1,.362.362v1.257A.363.363,0,0,1,71.861,27.73Z" transform="translate(-56.265 -25.749)" fill="#8b4e14"/><path d="M75.194,27.73h0a.363.363,0,0,1-.362-.362V26.111a.363.363,0,0,1,.362-.362h0a.363.363,0,0,1,.362.362v1.257A.363.363,0,0,1,75.194,27.73Z" transform="translate(-58.074 -25.749)" fill="#8b4e14"/><path d="M78.528,27.73h0a.363.363,0,0,1-.362-.362V26.111a.363.363,0,0,1,.362-.362h0a.363.363,0,0,1,.362.362v1.257A.363.363,0,0,1,78.528,27.73Z" transform="translate(-59.885 -25.749)" fill="#8b4e14"/><path d="M81.861,27.73h0a.363.363,0,0,1-.362-.362V26.111a.363.363,0,0,1,.362-.362h0a.363.363,0,0,1,.362.362v1.257A.363.363,0,0,1,81.861,27.73Z" transform="translate(-61.694 -25.749)" fill="#8b4e14"/><path d="M85.194,27.73h0a.363.363,0,0,1-.362-.362V26.111a.363.363,0,0,1,.362-.362h0a.363.363,0,0,1,.362.362v1.257A.363.363,0,0,1,85.194,27.73Z" transform="translate(-63.504 -25.749)" fill="#8b4e14"/><path d="M88.528,27.73h0a.363.363,0,0,1-.362-.362V26.111a.363.363,0,0,1,.362-.362h0a.363.363,0,0,1,.362.362v1.257A.363.363,0,0,1,88.528,27.73Z" transform="translate(-65.314 -25.749)" fill="#8b4e14"/></g><path d="M60.144,99.475H33.925a1.17,1.17,0,0,0-1.17,1.17v1.768a1.17,1.17,0,0,0,1.17,1.17H60.144a1.17,1.17,0,0,0,1.17-1.17v-1.768A1.171,1.171,0,0,0,60.144,99.475Z" transform="translate(-17.785 -54.012)" fill="#e1dbca"/><g transform="translate(17.443 46.527)"><path d="M38.528,103.784h0a.363.363,0,0,1-.362-.362v-1.257a.363.363,0,0,1,.362-.362h0a.363.363,0,0,1,.362.362v1.257A.363.363,0,0,1,38.528,103.784Z" transform="translate(-38.166 -101.803)" fill="#8b4e14"/><path d="M41.862,103.784h0a.363.363,0,0,1-.362-.362v-1.257a.363.363,0,0,1,.362-.362h0a.363.363,0,0,1,.362.362v1.257A.364.364,0,0,1,41.862,103.784Z" transform="translate(-39.976 -101.803)" fill="#8b4e14"/><path d="M45.195,103.784h0a.363.363,0,0,1-.362-.362v-1.257a.363.363,0,0,1,.362-.362h0a.363.363,0,0,1,.362.362v1.257A.363.363,0,0,1,45.195,103.784Z" transform="translate(-41.786 -101.803)" fill="#8b4e14"/><path d="M48.528,103.784h0a.363.363,0,0,1-.362-.362v-1.257a.363.363,0,0,1,.362-.362h0a.363.363,0,0,1,.362.362v1.257A.363.363,0,0,1,48.528,103.784Z" transform="translate(-43.596 -101.803)" fill="#8b4e14"/><path d="M51.861,103.784h0a.363.363,0,0,1-.362-.362v-1.257a.363.363,0,0,1,.362-.362h0a.363.363,0,0,1,.362.362v1.257A.363.363,0,0,1,51.861,103.784Z" transform="translate(-45.405 -101.803)" fill="#8b4e14"/><path d="M55.195,103.784h0a.363.363,0,0,1-.362-.362v-1.257a.363.363,0,0,1,.362-.362h0a.363.363,0,0,1,.362.362v1.257A.364.364,0,0,1,55.195,103.784Z" transform="translate(-47.216 -101.803)" fill="#8b4e14"/><path d="M58.528,103.784h0a.363.363,0,0,1-.362-.362v-1.257a.363.363,0,0,1,.362-.362h0a.363.363,0,0,1,.362.362v1.257A.363.363,0,0,1,58.528,103.784Z" transform="translate(-49.025 -101.803)" fill="#8b4e14"/><path d="M61.861,103.784h0a.363.363,0,0,1-.362-.362v-1.257a.363.363,0,0,1,.362-.362h0a.363.363,0,0,1,.362.362v1.257A.363.363,0,0,1,61.861,103.784Z" transform="translate(-50.835 -101.803)" fill="#8b4e14"/><path d="M65.195,103.784h0a.363.363,0,0,1-.362-.362v-1.257a.363.363,0,0,1,.362-.362h0a.363.363,0,0,1,.362.362v1.257A.364.364,0,0,1,65.195,103.784Z" transform="translate(-52.645 -101.803)" fill="#8b4e14"/><path d="M68.528,103.784h0a.363.363,0,0,1-.362-.362v-1.257a.363.363,0,0,1,.362-.362h0a.363.363,0,0,1,.362.362v1.257A.363.363,0,0,1,68.528,103.784Z" transform="translate(-54.455 -101.803)" fill="#8b4e14"/><path d="M71.861,103.784h0a.363.363,0,0,1-.362-.362v-1.257a.363.363,0,0,1,.362-.362h0a.363.363,0,0,1,.362.362v1.257A.363.363,0,0,1,71.861,103.784Z" transform="translate(-56.265 -101.803)" fill="#8b4e14"/><path d="M75.194,103.784h0a.363.363,0,0,1-.362-.362v-1.257a.363.363,0,0,1,.362-.362h0a.363.363,0,0,1,.362.362v1.257A.363.363,0,0,1,75.194,103.784Z" transform="translate(-58.074 -101.803)" fill="#8b4e14"/><path d="M78.528,103.784h0a.363.363,0,0,1-.362-.362v-1.257a.363.363,0,0,1,.362-.362h0a.363.363,0,0,1,.362.362v1.257A.364.364,0,0,1,78.528,103.784Z" transform="translate(-59.885 -101.803)" fill="#8b4e14"/><path d="M81.861,103.784h0a.363.363,0,0,1-.362-.362v-1.257a.363.363,0,0,1,.362-.362h0a.363.363,0,0,1,.362.362v1.257A.363.363,0,0,1,81.861,103.784Z" transform="translate(-61.694 -101.803)" fill="#8b4e14"/><path d="M85.194,103.784h0a.363.363,0,0,1-.362-.362v-1.257a.363.363,0,0,1,.362-.362h0a.363.363,0,0,1,.362.362v1.257A.363.363,0,0,1,85.194,103.784Z" transform="translate(-63.504 -101.803)" fill="#8b4e14"/><path d="M88.528,103.784h0a.363.363,0,0,1-.362-.362v-1.257a.363.363,0,0,1,.362-.362h0a.363.363,0,0,1,.362.362v1.257A.364.364,0,0,1,88.528,103.784Z" transform="translate(-65.314 -101.803)" fill="#8b4e14"/></g><circle cx="1.885" cy="1.885" r="1.885" transform="translate(17.082 28.037)" fill="#e1dbca"/><circle cx="1.885" cy="1.885" r="1.885" transform="translate(37.648 28.037)" fill="#e1dbca"/></g></g></svg>